<?xml version="1.0" standalone="no"?>
<!DOCTYPE svg PUBLIC "-//W3C//DTD SVG 20010904//EN"
 "http://www.w3.org/TR/2001/REC-SVG-20010904/DTD/svg10.dtd">
<svg version="1.0" xmlns="http://www.w3.org/2000/svg"
 width="766.000000pt" height="782.000000pt" viewBox="0 0 766.000000 782.000000"
 preserveAspectRatio="xMidYMid meet">

<g transform="translate(0.000000,782.000000) scale(0.100000,-0.100000)"
fill="#000000" stroke="none">
<path d="M3765 6894 c-119 -12 -204 -25 -355 -55 -145 -28 -375 -98 -570 -173
-521 -202 -1025 -535 -1384 -917 -87 -92 -237 -276 -307 -374 -96 -136 -225
-373 -310 -573 -297 -693 -326 -1590 -76 -2342 109 -327 260 -616 461 -885
243 -324 588 -650 862 -814 105 -63 339 -185 399 -208 88 -33 149 -54 206 -68
65 -17 73 -19 144 -32 51 -10 491 -5 530 6 17 4 32 15 33 25 3 16 -1 17 -35
12 -73 -12 -446 -10 -523 3 -212 36 -547 183 -785 346 -388 264 -784 717
-1007 1150 -235 457 -351 932 -357 1470 -5 450 58 801 224 1245 45 120 197
409 287 543 328 493 799 901 1364 1184 399 200 785 318 1189 364 146 17 531
17 670 0 412 -49 781 -159 1145 -341 371 -185 647 -383 930 -669 445 -448 717
-925 849 -1489 48 -203 60 -324 56 -592 -3 -277 -23 -434 -100 -765 -99 -428
-330 -918 -608 -1288 -276 -368 -644 -689 -1087 -949 -418 -245 -914 -401
-1480 -467 -184 -21 -291 -30 -377 -31 -42 0 -53 -3 -53 -16 0 -15 26 -16 293
-11 217 4 328 11 432 26 513 74 936 223 1347 473 655 398 1114 928 1427 1652
86 197 197 550 226 718 3 18 10 51 15 73 4 22 11 63 15 90 3 28 13 95 21 150
22 141 29 485 15 631 -58 565 -286 1091 -690 1594 -117 145 -401 426 -551 546
-462 367 -1019 621 -1589 723 -275 50 -624 63 -896 35z"/>
<path d="M3330 4833 c-177 -18 -414 -71 -600 -135 -435 -149 -1019 -505 -1451
-885 -163 -143 -231 -211 -334 -334 -92 -110 -133 -183 -115 -204 14 -16 48
-8 55 14 9 27 273 292 390 392 437 373 973 717 1351 867 207 82 392 134 599
169 165 27 467 24 639 -6 255 -45 527 -156 796 -326 98 -61 257 -202 343 -302
285 -335 400 -651 401 -1103 1 -201 -7 -281 -49 -495 -82 -419 -196 -778 -336
-1056 -78 -156 -246 -441 -316 -535 -54 -72 -201 -339 -192 -349 10 -10 48 29
168 175 364 444 563 837 694 1370 107 437 127 556 134 806 6 212 -3 327 -37
491 -95 456 -429 903 -860 1151 -298 170 -554 258 -855 292 -84 9 -346 11
-425 3z"/>
<path d="M2982 3570 c-42 -26 -52 -49 -52 -120 0 -58 3 -65 35 -97 34 -34 38
-35 89 -31 82 7 156 73 156 138 0 87 -148 158 -228 110z"/>
<path d="M2692 3095 c-64 -20 -94 -42 -90 -68 3 -24 -2 -24 149 -11 147 12
311 -28 478 -117 105 -56 124 -69 266 -185 173 -141 268 -254 315 -374 61
-155 5 -133 -395 160 -140 103 -215 155 -340 237 -422 278 -385 257 -430 249
-39 -8 -53 -37 -36 -70 7 -12 78 -60 158 -106 244 -142 394 -242 688 -459 105
-78 215 -154 246 -170 138 -75 219 -38 219 98 0 83 -83 231 -199 355 -55 58
-241 214 -331 278 -218 153 -532 235 -698 183z"/>
<path d="M3988 2807 c-41 -34 -81 -120 -73 -156 21 -97 196 -121 260 -36 61
79 51 143 -28 190 -57 33 -121 34 -159 2z"/>
</g>
</svg>
