<?xml version="1.0" standalone="no"?>
<!DOCTYPE svg PUBLIC "-//W3C//DTD SVG 20010904//EN"
 "http://www.w3.org/TR/2001/REC-SVG-20010904/DTD/svg10.dtd">
<svg version="1.0" xmlns="http://www.w3.org/2000/svg"
 width="1043.000000pt" height="1043.000000pt" viewBox="0 0 1043.000000 1043.000000"
 preserveAspectRatio="xMidYMid meet">
<metadata>
Created by potrace 1.11, written by Peter Selinger 2001-2013
</metadata>
<g transform="translate(0.000000,1043.000000) scale(0.100000,-0.100000)"
fill="#000000" stroke="none">
<path d="M5407 9214 c-1 -1 -63 -5 -137 -9 -167 -10 -188 -11 -236 -19 -22 -4
-52 -8 -69 -10 -107 -14 -134 -18 -165 -26 -19 -5 -54 -11 -78 -14 -24 -3 -46
-7 -50 -10 -4 -2 -23 -7 -42 -10 -50 -8 -69 -12 -120 -26 -25 -7 -52 -14 -60
-15 -8 -2 -15 -4 -15 -5 0 -1 -7 -3 -15 -5 -35 -7 -110 -29 -180 -52 -41 -14
-79 -26 -85 -28 -5 -1 -17 -4 -25 -7 -8 -3 -44 -16 -80 -28 -66 -23 -229 -84
-265 -100 -11 -5 -42 -19 -70 -31 -104 -45 -143 -63 -260 -121 -66 -33 -126
-65 -132 -70 -7 -6 -13 -7 -13 -2 0 5 -4 4 -8 -1 -4 -6 -20 -17 -37 -25 -16
-8 -45 -25 -64 -37 -18 -13 -37 -20 -42 -17 -5 3 -9 0 -9 -6 0 -6 -11 -15 -25
-20 -14 -5 -31 -14 -38 -20 -24 -21 -138 -90 -147 -90 -6 0 -10 -4 -10 -10 0
-5 -7 -10 -15 -10 -8 0 -15 -5 -15 -12 0 -6 -3 -9 -6 -5 -3 3 -18 -5 -32 -19
-15 -13 -32 -24 -39 -24 -7 0 -13 -4 -13 -10 0 -5 -4 -10 -10 -10 -5 0 -20 -9
-32 -20 -13 -10 -25 -19 -28 -18 -4 2 -28 -16 -64 -47 -6 -5 -38 -30 -71 -54
-33 -25 -62 -47 -65 -51 -3 -3 -21 -17 -40 -30 -19 -14 -42 -32 -51 -40 -8 -8
-42 -37 -74 -65 -123 -105 -274 -251 -374 -361 -53 -58 -254 -301 -296 -359
-17 -22 -33 -42 -36 -45 -5 -4 -62 -90 -167 -255 -6 -11 -15 -27 -19 -35 -4
-8 -17 -32 -30 -52 -51 -82 -212 -414 -261 -538 -16 -41 -33 -84 -37 -95 -5
-11 -9 -22 -10 -25 -1 -3 -20 -63 -44 -135 -44 -135 -99 -344 -115 -435 -14
-74 -18 -97 -23 -110 -4 -8 -5 -19 -4 -23 1 -5 -3 -36 -9 -69 -6 -33 -13 -74
-15 -91 -9 -76 -17 -154 -20 -182 -26 -231 -25 -703 1 -930 20 -173 36 -289
48 -351 2 -12 7 -38 10 -59 4 -20 13 -67 21 -103 8 -37 17 -76 18 -87 2 -11 7
-27 10 -35 4 -8 8 -26 10 -40 2 -14 7 -32 10 -40 3 -8 16 -51 28 -95 12 -44
35 -118 51 -165 17 -47 31 -89 33 -95 1 -5 7 -21 12 -35 6 -14 27 -68 48 -120
48 -125 204 -442 268 -544 28 -45 55 -91 61 -103 6 -13 14 -23 19 -23 4 0 7
-7 7 -15 0 -8 5 -15 10 -15 6 0 10 -6 10 -13 0 -8 9 -22 20 -32 11 -10 20 -23
20 -30 0 -7 9 -20 20 -30 11 -10 20 -23 20 -28 0 -6 7 -17 15 -26 9 -9 39 -47
68 -86 28 -38 61 -80 72 -91 11 -12 31 -37 45 -55 14 -18 39 -48 57 -66 17
-18 29 -33 27 -33 -14 0 335 -354 435 -440 35 -30 70 -62 79 -70 24 -23 204
-166 234 -185 8 -5 50 -34 92 -62 43 -29 82 -53 87 -53 5 0 9 -4 9 -8 0 -4 12
-13 28 -19 15 -6 63 -32 107 -57 71 -41 362 -189 375 -192 3 0 16 -5 30 -11
65 -27 227 -79 310 -99 136 -33 147 -33 495 -30 287 2 355 5 376 17 20 11 25
19 19 30 -7 12 -21 14 -67 9 -68 -8 -626 -4 -663 4 -14 3 -50 11 -80 17 -71
14 -271 81 -385 129 -111 46 -289 132 -293 142 -2 5 -12 8 -23 8 -10 0 -19 5
-19 10 0 6 -4 10 -10 10 -18 0 -312 186 -318 201 -2 5 -10 9 -17 9 -7 0 -15 3
-17 8 -4 9 -98 85 -98 78 0 -2 -13 8 -28 22 -16 15 -53 47 -83 72 -104 87
-411 399 -499 509 -19 24 -40 48 -46 55 -12 12 -107 136 -139 180 -11 15 -30
40 -42 54 -13 15 -23 32 -23 38 0 7 -7 14 -15 18 -8 3 -15 11 -15 19 0 7 -8
22 -18 33 -18 20 -49 64 -68 99 -6 11 -33 56 -60 100 -85 139 -279 536 -275
562 0 2 -9 24 -20 50 -37 86 -131 374 -145 446 -2 10 -6 27 -9 37 -3 10 -8 27
-10 37 -2 10 -9 41 -15 68 -6 28 -13 57 -15 65 -5 27 -18 95 -20 105 -2 6 -8
46 -15 90 -6 44 -13 91 -16 105 -2 14 -6 50 -10 80 -3 30 -7 71 -9 90 -25 198
-24 795 0 955 2 17 7 53 10 80 26 221 104 570 169 754 9 24 13 47 10 52 -3 5
-2 9 3 9 4 0 14 19 21 43 57 181 178 444 312 678 38 67 70 126 70 131 0 4 4 8
8 8 5 0 16 15 25 33 46 88 182 272 352 476 84 100 335 355 430 436 32 28 66
57 75 65 9 8 43 37 75 63 33 26 68 55 78 63 9 7 22 14 29 14 6 0 8 3 5 6 -5 6
37 38 103 79 8 6 27 20 40 33 13 12 28 22 33 22 4 0 15 6 22 13 33 29 45 37
55 37 5 0 10 5 10 11 0 5 4 8 9 5 5 -4 11 -2 13 3 4 11 114 81 127 81 5 0 11
4 13 8 2 5 30 23 63 42 33 18 62 36 65 39 15 17 358 190 364 184 3 -4 6 -1 6
5 0 7 9 12 20 12 11 0 20 5 20 10 0 6 3 9 8 8 4 -1 27 8 52 19 113 51 138 61
185 79 28 10 61 24 75 31 14 7 33 13 43 13 9 0 17 4 17 8 0 4 9 8 20 9 10 1
34 8 52 16 34 16 211 71 263 83 17 4 35 9 40 13 11 6 15 7 60 16 31 6 89 22
115 32 8 4 18 5 23 5 4 -1 38 5 75 13 80 18 116 24 162 31 19 2 46 7 59 9 25
4 80 12 141 21 94 12 249 18 490 18 337 0 442 -8 685 -49 17 -3 46 -8 65 -11
19 -3 67 -12 105 -21 39 -8 81 -17 94 -19 46 -9 256 -65 276 -73 11 -5 40 -14
65 -21 52 -14 257 -85 315 -110 93 -40 130 -55 135 -55 3 -1 20 -9 38 -18 17
-10 32 -14 32 -10 0 5 4 4 8 -2 4 -5 86 -49 182 -97 202 -101 274 -140 278
-150 2 -5 7 -8 12 -8 26 0 451 -286 490 -329 3 -3 25 -22 50 -41 46 -35 85
-68 127 -107 13 -13 26 -23 29 -23 8 0 344 -337 400 -401 95 -108 110 -125
176 -206 38 -46 68 -87 68 -92 0 -5 3 -11 8 -13 15 -7 109 -140 218 -308 85
-131 238 -432 305 -600 46 -115 136 -387 145 -434 3 -16 7 -33 10 -38 3 -5 7
-18 10 -31 4 -25 8 -39 28 -124 9 -34 18 -77 21 -95 3 -18 7 -44 10 -58 24
-130 30 -226 30 -515 0 -253 -8 -452 -20 -513 -2 -11 -6 -43 -10 -73 -9 -71
-53 -313 -66 -364 -6 -22 -13 -51 -16 -65 -31 -173 -154 -565 -238 -755 -7
-16 -34 -77 -60 -135 -25 -58 -82 -175 -127 -260 -68 -131 -114 -211 -237
-411 -37 -61 -204 -292 -233 -324 -7 -7 -23 -26 -35 -42 -12 -15 -30 -38 -40
-49 -10 -12 -36 -43 -58 -70 -74 -90 -359 -370 -485 -476 -69 -58 -183 -149
-255 -202 -71 -53 -141 -105 -155 -116 -14 -11 -30 -20 -37 -20 -6 0 -13 -4
-15 -8 -5 -13 -214 -147 -328 -210 -25 -14 -61 -34 -80 -45 -141 -81 -540
-260 -630 -282 -8 -2 -55 -18 -105 -35 -129 -45 -373 -113 -479 -136 -11 -2
-65 -13 -120 -25 -56 -11 -108 -22 -116 -24 -33 -6 -208 -34 -250 -39 -25 -4
-56 -8 -70 -11 -13 -2 -56 -7 -95 -11 -38 -3 -72 -8 -75 -9 -3 -2 -42 -7 -85
-10 -44 -4 -96 -9 -115 -11 -19 -2 -91 -6 -160 -10 -137 -6 -167 -14 -131 -33
16 -9 106 -10 344 -6 177 3 345 8 372 10 121 10 182 16 213 20 81 11 118 16
132 20 8 2 33 6 55 10 34 4 96 16 115 20 3 1 23 5 45 9 22 5 78 17 125 28 47
11 95 22 106 24 12 2 53 13 90 25 38 11 101 29 139 40 178 52 427 151 630 250
154 75 289 146 310 162 26 20 207 127 215 127 4 0 10 4 12 9 2 5 50 41 108 80
106 72 137 94 195 144 18 15 35 27 39 27 3 0 14 8 25 17 10 10 38 34 62 53
149 120 388 350 504 484 28 32 55 63 60 69 115 127 425 562 425 596 0 5 4 11
9 13 12 5 131 222 212 388 39 80 75 153 80 162 5 10 9 24 9 32 0 7 7 19 15 26
8 7 15 19 15 27 0 8 7 29 15 46 63 138 218 612 250 765 2 9 12 58 24 107 27
124 46 226 57 319 2 24 6 52 8 62 33 176 49 608 33 869 -4 61 -9 119 -11 130
-11 61 -16 94 -21 130 -6 45 -10 70 -24 135 -6 25 -12 59 -15 75 -11 76 -100
368 -146 485 -12 30 -23 60 -24 65 -1 6 -12 32 -24 59 -12 27 -22 50 -22 52 0
3 -18 43 -40 90 -22 47 -40 90 -40 94 0 5 -3 10 -7 12 -5 2 -25 37 -46 78 -20
41 -53 102 -72 135 -19 33 -40 71 -47 85 -7 14 -16 30 -21 35 -23 29 -117 178
-117 186 0 5 -4 9 -8 9 -4 0 -16 14 -27 32 -39 66 -188 260 -295 383 -63 72
-443 450 -530 526 -47 40 -87 76 -90 79 -3 3 -34 28 -69 54 -36 27 -69 53 -75
58 -28 24 -239 169 -311 213 -44 27 -82 51 -85 54 -3 3 -25 16 -50 29 -50 25
-102 54 -110 62 -3 3 -29 16 -57 29 -29 14 -53 28 -53 33 0 4 -3 7 -7 6 -5 -1
-60 23 -123 54 -173 83 -253 119 -278 124 -8 1 -30 10 -50 20 -20 10 -41 19
-47 20 -10 2 -109 38 -155 57 -14 6 -29 11 -35 11 -5 1 -41 12 -80 25 -67 22
-188 57 -230 66 -11 3 -67 16 -125 30 -58 13 -122 27 -144 31 -21 3 -48 8 -60
10 -11 3 -38 7 -59 9 -21 3 -42 7 -46 9 -4 3 -43 8 -86 11 -44 4 -83 9 -87 12
-5 2 -43 6 -85 8 -43 3 -109 7 -148 10 -60 5 -404 12 -408 9z"/>
<path d="M4687 6454 c-1 -1 -49 -4 -107 -7 -58 -3 -114 -8 -126 -11 -12 -2
-45 -7 -75 -11 -30 -4 -56 -8 -59 -10 -3 -2 -24 -6 -46 -9 -55 -9 -73 -12
-119 -25 -22 -6 -51 -12 -65 -15 -14 -2 -26 -5 -27 -7 -3 -2 -2 -1 -58 -14
-47 -10 -54 -12 -57 -15 -2 -1 -10 -3 -18 -5 -86 -20 -333 -108 -438 -156 -35
-16 -66 -29 -68 -29 -12 0 -331 -163 -440 -225 -131 -74 -366 -215 -374 -225
-3 -3 -29 -21 -59 -39 -30 -18 -61 -39 -68 -47 -8 -8 -18 -14 -23 -14 -5 0
-15 -6 -22 -12 -7 -7 -36 -28 -63 -47 -61 -42 -300 -221 -335 -250 -14 -11
-29 -24 -35 -28 -65 -50 -164 -135 -318 -273 -47 -42 -226 -220 -247 -246 -9
-11 -50 -60 -93 -111 -42 -50 -77 -94 -77 -98 0 -3 -11 -21 -24 -38 -18 -25
-46 -87 -46 -103 0 -1 7 -9 15 -18 13 -12 21 -13 40 -4 14 6 25 15 25 20 0 14
42 59 235 253 199 198 227 224 336 315 128 107 162 135 183 150 12 8 26 19 32
25 6 5 26 21 44 35 55 42 214 161 235 176 11 7 54 38 95 67 145 103 445 297
545 352 22 12 84 47 138 78 53 30 97 53 97 50 0 -3 6 0 14 6 22 18 104 60 109
55 2 -2 10 2 17 11 7 8 16 15 20 15 5 0 43 16 86 36 112 52 334 138 374 145 3
1 14 5 26 9 46 18 124 39 124 33 0 -3 6 -1 13 5 7 6 24 13 37 16 14 2 73 16
133 31 59 14 112 23 117 20 6 -3 10 -1 10 4 0 6 3 10 8 9 6 -2 72 7 124 17 77
15 518 28 518 15 0 -3 30 -5 68 -5 82 -1 202 -13 277 -29 108 -22 282 -69 320
-86 11 -5 31 -12 45 -16 43 -11 211 -83 320 -137 413 -204 666 -412 933 -768
39 -50 57 -79 57 -89 0 -5 5 -10 10 -10 6 0 10 -6 10 -13 0 -8 9 -22 20 -32
11 -10 20 -22 20 -27 0 -5 11 -26 25 -48 14 -22 22 -40 18 -40 -5 0 -3 -4 2
-8 10 -7 45 -66 47 -79 1 -5 10 -27 20 -51 24 -54 68 -171 73 -195 2 -10 7
-27 10 -37 6 -20 14 -53 20 -85 3 -11 9 -39 15 -63 6 -23 12 -57 14 -75 3 -18
6 -32 7 -32 1 0 3 -16 4 -35 5 -59 15 -122 21 -131 3 -5 0 -9 -7 -9 -8 0 -8
-4 -1 -12 6 -8 9 -106 7 -268 -3 -237 -6 -298 -20 -375 -3 -16 -7 -46 -9 -65
-5 -41 -11 -76 -36 -195 -6 -27 -12 -59 -14 -70 -3 -11 -9 -40 -15 -65 -5 -25
-12 -58 -15 -75 -3 -16 -12 -54 -21 -84 -8 -30 -12 -58 -9 -63 3 -4 0 -8 -5
-8 -6 0 -10 -3 -9 -7 2 -10 -13 -75 -20 -88 -3 -5 -7 -20 -8 -34 -2 -13 -13
-56 -25 -95 -12 -39 -23 -76 -25 -83 -2 -14 -42 -140 -51 -163 -4 -8 -7 -17
-8 -20 -7 -29 -30 -87 -37 -96 -5 -7 -8 -16 -7 -20 1 -5 -2 -18 -6 -29 -4 -11
-17 -42 -28 -70 -10 -27 -24 -61 -30 -75 -5 -14 -10 -28 -9 -32 1 -5 -2 -8 -7
-8 -5 0 -12 -16 -15 -35 -4 -19 -11 -35 -16 -35 -6 0 -10 -6 -10 -13 0 -13
-128 -269 -138 -277 -4 -3 -8 -10 -9 -17 -2 -7 -16 -34 -33 -61 -16 -27 -30
-54 -30 -61 0 -6 -4 -11 -10 -11 -5 0 -10 -7 -10 -15 0 -8 -4 -15 -9 -15 -5 0
-13 -9 -16 -20 -4 -11 -24 -48 -46 -83 -22 -34 -42 -70 -45 -79 -4 -10 -10
-18 -15 -18 -5 0 -9 -5 -9 -10 0 -6 -43 -74 -94 -151 -52 -77 -98 -149 -101
-160 -4 -10 -11 -19 -17 -19 -6 0 -9 -3 -5 -6 3 -3 -11 -34 -32 -67 -50 -84
-113 -215 -109 -227 1 -5 19 5 38 23 51 48 91 94 235 272 31 39 62 78 70 87 7
9 54 74 104 145 50 70 95 133 99 138 4 6 19 28 32 50 13 22 28 41 32 43 4 2 8
8 8 12 0 5 24 48 54 97 29 48 73 126 97 173 24 47 48 88 52 91 5 3 9 10 9 15
0 5 7 25 15 44 9 19 15 38 15 43 -1 4 3 7 10 7 6 0 9 2 6 6 -3 3 8 33 24 67
17 34 31 67 33 72 1 6 8 26 16 45 7 19 12 38 11 43 -1 4 3 7 8 7 5 0 9 3 8 8
-1 4 4 20 10 35 7 16 12 34 12 41 0 7 3 16 8 20 4 4 7 11 7 14 1 4 18 57 38
119 20 61 37 120 37 130 0 11 4 23 9 28 5 6 12 24 14 40 3 17 8 37 11 45 3 8
8 26 10 40 3 14 9 40 15 58 5 17 7 32 4 32 -3 0 0 7 7 15 7 9 10 18 7 22 -4 3
-2 13 3 23 5 9 12 30 15 46 7 39 14 71 35 154 11 47 14 61 26 120 10 54 12 65
14 65 2 0 4 12 14 84 3 23 8 46 10 50 2 3 6 29 10 56 3 28 8 61 11 74 8 43 16
163 21 331 2 91 7 171 9 178 2 6 1 12 -3 12 -4 0 -8 44 -9 98 -1 53 -4 111 -6
127 -3 17 -8 55 -11 85 -3 30 -9 66 -11 80 -3 14 -8 36 -10 50 -2 14 -9 42
-14 62 -5 20 -6 39 -3 42 3 4 1 6 -5 6 -9 0 -16 25 -25 88 -1 6 -6 12 -11 12
-5 0 -7 6 -4 14 3 8 3 17 -1 21 -4 4 -8 11 -8 16 -1 5 -3 11 -4 14 -1 3 -3 8
-5 13 -2 7 -3 10 -42 107 -27 66 -94 207 -103 215 -5 5 -9 12 -52 89 -100 179
-311 429 -501 594 -33 28 -65 57 -71 63 -6 5 -53 40 -105 77 -265 190 -634
365 -931 441 -36 9 -78 21 -95 26 -16 4 -46 11 -65 14 -19 3 -46 8 -60 11 -14
3 -45 8 -70 11 -25 3 -52 7 -60 9 -35 10 -474 27 -483 19z"/>
<path d="M4087 4765 c-60 -31 -74 -59 -76 -152 -3 -81 6 -103 57 -150 30 -28
42 -33 86 -33 135 1 254 119 222 220 -30 93 -200 162 -289 115z"/>
<path d="M3720 4135 c-25 -7 -57 -18 -72 -24 -16 -6 -28 -8 -28 -4 0 3 -11 -7
-25 -23 -29 -34 -32 -60 -7 -68 9 -3 60 -3 112 1 150 9 302 4 317 -11 3 -3 16
-6 29 -6 41 0 208 -60 320 -115 197 -97 400 -249 594 -446 109 -110 153 -171
206 -284 60 -125 56 -184 -10 -150 -14 8 -26 12 -26 9 0 -6 -126 75 -250 160
-55 38 -100 73 -100 78 0 4 -5 8 -11 8 -9 0 -101 65 -190 133 -8 7 -22 17 -31
22 -60 40 -134 91 -138 96 -6 8 -576 383 -649 428 -76 46 -94 51 -135 40 -35
-10 -56 -33 -56 -62 0 -15 33 -57 44 -57 4 0 14 -6 21 -14 8 -8 92 -60 187
-117 95 -56 203 -122 240 -146 37 -23 72 -43 77 -43 6 0 11 -4 11 -8 0 -5 12
-15 28 -23 15 -8 29 -16 32 -19 3 -3 48 -34 100 -70 92 -62 264 -184 285 -202
12 -10 243 -177 271 -195 11 -7 44 -30 75 -52 96 -69 178 -105 244 -109 56 -4
63 -2 92 25 70 65 69 185 -2 328 -40 80 -64 116 -155 235 -32 42 -77 87 -152
152 -34 29 -66 58 -72 63 -6 6 -47 39 -90 75 -43 36 -86 72 -95 80 -28 26
-169 120 -179 120 -6 0 -12 3 -14 8 -12 27 -342 159 -423 169 -22 2 -42 7 -45
11 -13 17 -275 22 -330 7z"/>
<path d="M5455 3761 c-48 -22 -88 -71 -116 -145 -25 -64 -21 -92 21 -139 52
-60 179 -77 255 -34 43 24 90 85 104 133 10 36 -7 95 -38 128 -55 59 -162 86
-226 57z"/>
</g>
</svg>
